HIERARCHY
ROOT Hips
{
	OFFSET 0.000000 0.000000 0.000000 
	CHANNELS 6 Xposition Yposition Zposition Zrotation Yrotation Xrotation
	JOINT LeftUpLeg
	{
		OFFSET 1.363060 -1.794630 0.839290 
		CHANNELS 3 Zrotation Yrotation Xrotation
		JOINT LeftLeg
		{
			OFFSET 2.448110 -6.726130 0.000000 
			CHANNELS 3 Zrotation Yrotation Xrotation
			JOINT LeftFoot
			{
				OFFSET 2.562200 -7.039590 0.000000 
				CHANNELS 3 Zrotation Yrotation Xrotation
				JOINT LeftToeBase
				{
					OFFSET 0.157640 -0.433110 2.322550 
					CHANNELS 3 Zrotation Yrotation Xrotation
					End Site
					{
						OFFSET 0.000000 0.000000 0.000000 
					}
				}
			}
		}
	}
	JOINT RightUpLeg
	{
		OFFSET -1.305520 -1.794630 0.839290 
		CHANNELS 3 Zrotation Yrotation Xrotation
		JOINT RightLeg
		{
			OFFSET -2.542530 -6.985550 0.000000 
			CHANNELS 3 Zrotation Yrotation Xrotation
			JOINT RightFoot
			{
				OFFSET -2.568260 -7.056230 0.000000 
				CHANNELS 3 Zrotation Yrotation Xrotation
				JOINT RightToeBase
				{
					OFFSET -0.164730 -0.452590 2.363150 
					CHANNELS 3 Zrotation Yrotation Xrotation
					End Site
					{
						OFFSET 0.000000 0.000000 0.000000 
					}
				}
			}
		}
	}
	JOINT Spine
	{
		OFFSET 0.028270 2.035590 -0.193380 
		CHANNELS 3 Zrotation Yrotation Xrotation
		JOINT Spine1
		{
			OFFSET 0.056720 2.048850 -0.042750 
			CHANNELS 3 Zrotation Yrotation Xrotation
			JOINT Neck1
			{
				OFFSET -0.054170 1.746240 0.172020 
				CHANNELS 3 Zrotation Yrotation Xrotation
				JOINT Head
				{
					OFFSET 0.104070 1.761360 -0.123970 
					CHANNELS 3 Zrotation Yrotation Xrotation
					End Site
					{
						OFFSET 0.000000 0.000000 0.000000 
					}
				}
			}
			JOINT LeftArm
			{
				OFFSET 3.362410 1.200890 -0.311210 
				CHANNELS 3 Zrotation Yrotation Xrotation
				JOINT LeftForeArm
				{
					OFFSET 4.983000 -0.000000 -0.000000 
					CHANNELS 3 Zrotation Yrotation Xrotation
					JOINT LeftHand
					{
						OFFSET 3.483560 -0.000000 -0.000000 
						CHANNELS 3 Zrotation Yrotation Xrotation
						JOINT LeftHandIndex1
						{
							OFFSET 0.715260 -0.000000 -0.000000 
							CHANNELS 3 Zrotation Yrotation Xrotation
							End Site
							{
								OFFSET 0.000000 0.000000 0.000000 
							}
						}
					}
				}
			}
			JOINT RightArm
			{
				OFFSET -3.136600 1.374050 -0.404650 
				CHANNELS 3 Zrotation Yrotation Xrotation
				JOINT RightForeArm
				{
					OFFSET -5.241900 -0.000000 -0.000000 
					CHANNELS 3 Zrotation Yrotation Xrotation
					JOINT RightHand
					{
						OFFSET -3.444170 -0.000000 -0.000000 
						CHANNELS 3 Zrotation Yrotation Xrotation
						JOINT RightHandIndex1
						{
							OFFSET -0.622530 -0.000000 -0.000000 
							CHANNELS 3 Zrotation Yrotation Xrotation
							End Site
							{
								OFFSET 0.000000 0.000000 0.000000 
							}
						}
					}
				}
			}
		}
	}
}
MOTION
Frames: 16
Frame Time: 0.041667
-8.065005 18.342622 0.567256 -157.670343 86.928864 -140.318585 -10.048221 -1.461466 -22.613970 7.871879 17.029368 56.436576 2.724591 -5.718722 26.440900 0.016400 -0.825700 -2.269300 16.299656 13.082604 -23.892903 0.199595 -6.897786 19.547207 0.519003 -3.900099 2.192804 -0.009000 0.613300 -1.685300 2.023855 1.138494 -11.900786 -0.860983 1.058583 -2.875155 20.989092 -1.420479 4.570378 4.704500 -0.997400 -1.392800 -86.161985 8.347801 -92.932650 7.345563 -11.046879 -1.113067 0.983612 0.624098 129.841157 -7.125000 0.000000 0.000000 88.283672 -7.466069 -3.095398 -10.898714 14.675741 -1.440818 -0.727798 -0.247549 27.974201 7.125000 0.000000 0.000000 
-7.948276 18.347973 0.584091 -158.970522 86.811978 -141.835646 -9.981103 -1.680075 -23.364604 8.442236 17.362774 57.915886 2.387749 -4.812506 24.135968 0.041900 -1.320400 -3.630900 16.485838 12.783116 -23.351373 0.212825 -6.870614 19.494970 0.517938 -3.863215 1.616688 -0.013300 0.746000 -2.050000 1.970396 1.179517 -11.827257 -0.897010 1.076402 -2.954356 20.817630 -1.520413 4.723844 4.655000 -1.029200 -1.348300 -86.084287 8.221633 -93.805122 7.365045 -11.122031 -1.111683 1.016606 0.567092 131.591573 -7.125000 0.000000 0.000000 88.257408 -7.035327 -3.069521 -10.703058 14.448409 -1.412472 -0.750007 -0.234151 28.352982 7.125000 0.000000 0.000000 
-7.824523 18.356447 0.598919 -161.532849 86.610504 -144.754957 -9.967515 -1.989927 -23.896281 8.943221 17.632098 59.200904 2.068825 -3.958627 21.904323 0.086300 -1.894300 -5.213600 16.616166 12.432707 -22.671483 0.226391 -6.862288 19.461376 0.547199 -3.968680 1.015072 -0.022700 0.972500 -2.673100 1.905054 1.178409 -11.687825 -0.915207 1.065485 -2.971193 20.601921 -1.561515 4.605780 4.589800 -1.059200 -1.390300 -86.123844 8.185292 -91.525083 7.359328 -11.007165 -1.104144 0.981637 0.619439 129.244767 -7.125000 0.000000 0.000000 88.211552 -6.558096 -2.758890 -10.673949 14.399548 -1.395387 -0.731893 -0.243463 28.393703 7.125000 0.000000 0.000000 
-7.711251 18.361910 0.611294 -163.556172 86.490889 -146.956700 -9.992355 -2.352635 -24.640848 9.385097 17.869553 60.306026 1.747680 -3.040807 19.800824 0.080600 -1.831400 -5.039800 16.745964 11.893937 -22.283279 0.245988 -6.832086 19.374287 0.534361 -3.912260 0.683038 -0.037200 1.245600 -3.424800 1.874580 1.179403 -11.591454 -0.891383 1.061627 -2.945288 20.358804 -1.650671 4.632729 4.522200 -1.097700 -1.385700 -86.119526 7.790673 -91.923154 7.345677 -11.017393 -1.111212 0.989984 0.615836 129.540136 -7.125000 0.000000 0.000000 88.173556 -6.124645 -2.918381 -10.633824 14.348995 -1.385777 -0.728464 -0.245643 29.158911 7.125000 0.000000 0.000000 
-7.603218 18.369379 0.625231 -164.582789 86.516495 -148.001209 -9.991784 -2.717344 -25.568177 9.767580 18.084897 61.265562 1.466028 -2.225951 18.034149 0.030500 -1.126900 -3.098100 16.873501 11.319716 -22.102711 0.261934 -6.794512 19.291983 0.476199 -3.667849 0.446597 -0.192100 2.822900 -7.786200 1.810801 1.264984 -11.601139 -0.884584 1.107022 -2.985616 20.045305 -1.769468 4.888427 4.426300 -1.128800 -1.330000 -86.032800 7.339478 -94.454775 7.337368 -11.141053 -1.124069 1.045025 0.538242 132.618719 -7.125000 0.000000 0.000000 88.284283 -5.895353 -2.992344 -10.704455 14.448945 -1.403554 -0.731091 -0.242743 29.439523 7.125000 0.000000 0.000000 
-7.492398 18.380305 0.636714 -164.584584 86.719823 -147.985165 -10.025357 -2.960974 -26.539671 10.108913 18.284229 62.121219 1.197050 -1.461851 16.232241 0.030300 -1.122800 -3.086800 16.923580 11.056378 -21.856387 0.266625 -6.765741 19.264414 0.393568 -3.315078 0.142321 -0.077400 1.794600 -4.938400 1.753302 1.462623 -11.636205 -0.876613 1.222526 -3.012748 19.975498 -1.829018 4.953408 4.418300 -1.156400 -1.347300 -86.134939 7.150039 -94.004634 7.318663 -11.104917 -1.121962 1.058801 0.518722 132.637054 -7.125000 0.000000 0.000000 88.324485 -5.485372 -3.313269 -10.662996 14.397116 -1.388423 -0.725282 -0.230741 29.652940 7.125000 0.000000 0.000000 
-7.384699 18.381866 0.644630 -164.130736 86.829064 -147.543329 -10.046193 -3.174875 -27.411234 10.408902 18.459340 62.802569 0.828143 -0.342379 13.882474 0.096500 -2.003200 -5.514400 17.038553 10.830790 -21.581207 0.267700 -6.740784 19.247347 0.327281 -3.031701 -0.042548 -0.000900 0.190400 -0.523100 1.741073 1.625878 -11.652489 -0.891048 1.319183 -3.074733 19.918133 -1.874220 4.961864 4.412900 -1.178700 -1.353800 -86.301393 7.028187 -91.511324 7.272503 -10.930216 -1.101294 1.029783 0.559580 130.054357 -7.125000 0.000000 0.000000 88.283315 -4.902099 -4.151461 -10.424107 14.110348 -1.349844 -0.746727 -0.211022 30.699335 7.125000 0.000000 0.000000 
-7.279677 18.379079 0.653883 -164.825565 86.720719 -148.323730 -10.028805 -3.559379 -28.155573 10.610852 18.582355 63.291419 0.612579 0.305058 12.645392 0.018300 -0.874000 -2.402300 17.192627 10.509608 -21.274406 0.269349 -6.733086 19.250199 0.314911 -2.986304 -0.600424 -0.007800 0.570600 -1.568000 1.706376 1.667662 -11.662046 -0.945741 1.337654 -3.183888 19.698670 -2.098770 5.346879 4.350200 -1.254400 -1.269200 -86.394471 6.813050 -90.261011 7.266582 -10.864947 -1.089986 1.013033 0.578124 128.930779 -7.125000 0.000000 0.000000 88.283995 -4.502348 -2.632540 -10.632108 14.313896 -1.357837 -0.680267 -0.265335 29.314428 7.125000 0.000000 0.000000 
-7.168187 18.380305 0.665032 -165.882931 86.618652 -149.504737 -10.022011 -3.967205 -28.836016 10.765570 18.680249 63.594643 0.292283 1.347946 11.315490 0.002400 -0.314400 -0.863800 17.291444 10.333073 -20.853351 0.260376 -6.752017 19.321491 0.355884 -3.164391 -1.123983 -0.024000 0.999400 -2.747200 1.654940 1.646256 -11.626375 -1.012181 1.317042 -3.200974 19.429445 -2.114069 5.756478 4.244600 -1.219800 -1.174600 -86.539234 6.622424 -88.631159 7.277281 -10.804810 -1.086110 0.997557 0.601151 127.634550 -7.125000 0.000000 0.000000 88.252394 -4.021927 -2.154295 -10.505099 14.146764 -1.324234 -0.669618 -0.264783 29.235440 7.125000 0.000000 0.000000 
-7.055695 18.380305 0.672613 -165.140854 86.782471 -148.771117 -10.040217 -4.167088 -29.650631 10.854143 18.763837 63.698244 -0.071598 2.531484 9.928655 0.002000 -0.285900 -0.785400 17.396183 10.195154 -20.546817 0.248341 -6.758885 19.393533 0.309170 -2.980869 -1.547176 -0.026200 1.044400 -2.870900 1.566351 1.807631 -11.618056 -1.130361 1.400559 -3.165933 19.483489 -2.125711 5.938166 4.242600 -1.210100 -1.134800 -86.646203 6.482829 -85.422380 7.254573 -10.617536 -1.064611 0.953036 0.652003 124.430403 -7.125000 0.000000 0.000000 88.325360 -3.698316 -1.472861 -10.576860 14.224423 -1.327039 -0.645719 -0.273419 28.727487 7.125000 0.000000 0.000000 
-6.950003 18.380194 0.676181 -164.873312 87.128282 -148.329068 -10.187584 -4.311921 -30.684078 10.876921 18.823973 63.656432 -0.376315 3.494904 8.743976 0.000800 -0.178700 -0.490900 17.395109 9.873992 -20.561451 0.239428 -6.757440 19.445351 0.175525 -2.439026 -1.768309 -0.032800 1.168300 -3.212100 1.407132 2.110626 -11.699714 -1.225825 1.561461 -3.164851 19.450832 -2.283498 6.140053 4.224100 -1.271800 -1.093000 -86.679661 6.287770 -83.019898 7.214945 -10.446992 -1.039248 0.920899 0.678265 122.162997 -7.125000 0.000000 0.000000 88.428761 -3.393571 -1.085355 -10.636342 14.289834 -1.333698 -0.631277 -0.283949 28.403662 7.125000 0.000000 0.000000 
-6.845427 18.382870 0.682759 -166.476097 87.281981 -149.979198 -10.312218 -4.658902 -31.378765 10.809754 18.828817 63.388758 -0.615833 4.238508 7.756153 0.001600 -0.258700 -0.710900 17.374644 9.509041 -20.378425 0.229798 -6.780932 19.523202 0.133150 -2.282828 -2.032629 -0.065300 1.649100 -4.536800 1.307161 2.265192 -11.732798 -1.243355 1.636037 -3.278511 18.992814 -2.564119 6.851143 4.589100 -1.335800 -1.018400 -86.814904 6.178764 -80.766749 7.195428 -10.308394 -1.016641 0.901011 0.687860 120.307812 -7.125000 0.000000 0.000000 88.417185 -2.971130 -1.178164 -10.506981 14.134537 -1.312558 -0.646818 -0.271726 28.794954 7.125000 0.000000 0.000000 
-6.751887 18.377964 0.685658 -162.189517 87.741892 -145.459450 -10.202820 -4.862666 -32.490332 10.698912 18.853448 62.973566 -0.855375 4.997752 6.944590 0.005100 -0.459900 -1.263600 17.507902 9.591793 -20.406758 0.201611 -6.787228 19.651342 0.104598 -2.163230 -2.314167 -0.114100 2.177400 -5.996100 1.410521 2.507459 -10.305419 -1.124697 1.726591 -0.506483 19.285752 -2.350943 5.538069 4.242000 -1.339200 -1.082100 -86.916666 3.643827 -78.792411 7.161930 -10.211833 -0.993005 0.868676 0.701376 118.473984 -7.125000 0.000000 0.000000 87.819402 -0.088080 -1.202911 -10.216998 13.798130 -1.261202 -0.662350 -0.252557 29.647617 7.125000 0.000000 0.000000 
-6.636608 18.376626 0.699594 -164.063202 87.747012 -147.479606 -10.229019 -5.279057 -32.879030 10.500605 18.794010 62.353107 -1.031243 5.532865 6.120181 0.005500 -0.477800 -1.312800 17.484027 9.657156 -19.874225 0.188476 -6.824191 19.756505 0.190583 -2.552700 -2.879920 -0.160800 2.583400 -7.120900 1.371390 2.531910 -10.225786 -1.117454 1.737141 -0.495487 19.369909 -2.364845 5.866649 4.269000 -1.315600 -0.984200 -87.129634 3.629955 -72.855403 7.208224 -9.951930 -0.966055 0.758376 0.789012 112.446369 -7.125000 0.000000 0.000000 87.842242 0.408421 -1.281359 -10.136721 13.711766 -1.256749 -0.684522 -0.240425 30.105809 7.125000 0.000000 0.000000 
-6.523446 18.373616 0.706840 -166.609309 87.944782 -150.062401 -10.424338 -5.572401 -33.411366 10.254602 18.708918 61.615661 -1.177191 5.970844 5.346131 0.007500 -0.558500 -1.534700 17.303353 9.625611 -19.532059 0.180485 -6.851317 19.835646 0.132658 -2.363146 -3.378893 -0.160600 2.582300 -7.118000 1.271166 2.597657 -10.191474 -1.149058 1.765515 -0.474245 19.505827 -2.289654 6.150390 4.313000 -1.253000 -0.910300 -87.314423 3.622722 -66.516415 7.281580 -9.697537 -0.946067 0.619253 0.875572 105.652786 -7.125000 0.000000 0.000000 87.885978 0.814381 -1.106212 -10.071155 13.644041 -1.253035 -0.703251 -0.224531 30.342269 7.125000 0.000000 0.000000 
-6.415191 18.371052 0.712526 -167.896137 87.996807 -151.389733 -10.442183 -5.956813 -33.926909 9.949364 18.603054 60.703970 -1.270283 6.256891 4.812672 0.010800 -0.671700 -1.845900 17.269910 9.507755 -19.215522 0.170612 -6.869661 19.906048 0.076688 -2.173844 -3.756699 -0.125100 2.279900 -6.279800 1.183741 2.684730 -10.206304 -1.206896 1.798152 -0.512733 18.800396 -2.470430 6.556506 4.582800 -1.295100 -0.927000 -87.486307 3.621522 -61.062085 7.412406 -9.565190 -0.927629 0.503066 0.917436 100.185545 -7.125000 0.000000 0.000000 87.954130 1.031358 -0.359507 -10.138061 13.736521 -1.272127 -0.710504 -0.224784 29.893769 7.125000 0.000000 0.000000 
